<svg width="16" height="16" viewBox="0 0 16 16" fill="none" xmlns="http://www.w3.org/2000/svg">
<path fill-rule="evenodd" clip-rule="evenodd" d="M14.4714 1.52843C13.4747 0.531702 11.8587 0.531701 10.862 1.52843L3.31758 9.07279C3.1619 9.2284 3.04412 9.34611 2.94092 9.4791C2.84971 9.59665 2.76849 9.72163 2.69812 9.85272C2.6185 10.001 2.55877 10.1565 2.4798 10.3619L1.04446 14.0939C1.01453 14.1717 0.99999 14.2527 1 14.3331C1.00001 14.5068 1.06793 14.6773 1.19528 14.8046C1.38158 14.9909 1.66011 15.05 1.90601 14.9554L5.4925 13.576C5.51286 13.5682 5.53364 13.5602 5.55452 13.5521L5.63792 13.5201C5.84336 13.4411 5.99883 13.3813 6.14713 13.3017C6.27823 13.2314 6.40321 13.1501 6.52075 13.0589C6.65374 12.9557 6.77144 12.838 6.92704 12.6823L14.4714 5.13791C15.4682 4.14118 15.4682 2.52516 14.4714 1.52843ZM3.58733 11.1967L2.82738 13.1725L4.80321 12.4125L3.58733 11.1967Z" fill="#555555"/>
</svg>
